<?xml version="1.0" encoding="UTF-8"?>
<svg version="1.1" xmlns="http://www.w3.org/2000/svg" width="842" height="842">
<path d="M0 0 C5.11896837 0.05222769 10.23785983 0.0739305 15.35704041 0.09412384 C54.19668982 0.24798895 54.19668982 0.24798895 72.31347656 0.96032715 C73.22858253 0.9932058 74.14368851 1.02608444 75.08652496 1.05995941 C84.30120578 1.46406472 93.14448802 3.17013307 102.12915039 5.16394043 C103.82514705 5.52790767 105.52127576 5.89126011 107.2175293 6.25402832 C179.81120397 21.94957173 179.81120397 21.94957173 206.56665039 41.10144043 C210.18839079 43.57217847 213.90289548 45.70056592 217.75976562 47.77038574 C231.10761634 54.9430587 243.48818087 63.51856086 255.76196289 72.38269043 C258.75697925 74.59401172 258.75697925 74.59401172 262.00415039 76.22644043 C267.16686835 79.09076717 271.48541941 83.14278488 275.94555664 86.97106934 C277.35290544 88.1503483 278.7811018 89.30481678 280.21899414 90.44665527 C287.155343 95.9779681 293.49684881 101.90786476 299.7355957 108.19714355 C301.33588364 109.80830436 302.94679746 111.40829727 304.55883789 113.00769043 C305.59333504 114.04350699 306.62721281 115.07994261 307.66040039 116.11706543 C308.58014648 117.03906738 309.49989258 117.96106934 310.44750977 118.91101074 C312.65056542 121.35471345 314.16922871 123.71051826 315.81665039 126.53894043 C317.39773296 128.37461227 317.39773296 128.37461227 319.14477539 130.02722168 C319.77601318 130.64669678 320.40725098 131.26617187 321.05761719 131.90441895 C321.72059814 132.54693604 322.3835791 133.18945312 323.06665039 133.85144043 C328.21087992 138.91906283 333.16906406 144.00903086 337.81665039 149.53894043 C338.6584082 150.49155762 339.50016602 151.4441748 340.36743164 152.42565918 C357.0731691 171.39321858 370.99165785 192.09354507 383.75878906 213.85339355 C384.23034424 214.65196777 384.70189941 215.45054199 385.18774414 216.27331543 C385.59951904 216.97682129 386.01129395 217.68032715 386.43554688 218.40515137 C387.83037711 220.65074171 387.83037711 220.65074171 389.81274414 222.95300293 C391.87813559 225.6182839 393.16162914 228.09538802 394.50805664 231.17956543 C395.21285156 232.78638184 395.21285156 232.78638184 395.93188477 234.42565918 C396.40948242 235.53554199 396.88708008 236.6454248 397.37915039 237.78894043 C397.86061523 238.88335449 398.34208008 239.97776855 398.83813477 241.10534668 C401.10665034 246.3163797 403.25609695 251.50293214 404.97802734 256.9197998 C405.87758105 259.72923566 406.82650779 262.52035714 407.78094482 265.31155396 C422.08094644 307.14278967 431.15003108 348.09135183 431.11743164 392.47644043 C431.12133558 394.73490474 431.12567361 396.99336835 431.13041687 399.25183105 C431.13781932 403.95807282 431.13763273 408.66423951 431.13232422 413.3704834 C431.12769865 418.135228 431.13459648 422.89971706 431.15283203 427.66442871 C431.38905653 489.93184141 423.46732574 547.99364657 396.06347656 604.65783691 C395.01249397 606.83416292 393.96826046 609.01364504 392.92407227 611.1932373 C389.33330495 618.64536361 385.60191443 625.89908382 381.32861328 632.98791504 C379.81252967 635.54589303 378.42816185 638.14602183 377.06665039 640.78894043 C366.91459644 659.50846848 352.90896027 676.66506743 338.81665039 692.53894043 C337.99293945 693.4747998 337.16922852 694.41065918 336.32055664 695.37487793 C330.30280113 702.07796286 323.98547004 708.47078039 317.62915039 714.85144043 C316.78545898 715.69980469 315.94176758 716.54816895 315.07250977 717.42224121 C310.75538455 721.7283447 306.36325256 725.85621436 301.73974609 729.82971191 C298.33081506 732.85953624 295.18808822 736.15142565 292.00415039 739.41394043 C286.62678927 744.8663345 281.19923024 749.88975179 275.16821289 754.61315918 C272.97601882 756.40842775 271.11219522 758.27437543 269.19165039 760.35144043 C262.94584051 766.77606696 255.19115266 771.52122072 247.81665039 776.53894043 C246.5599065 777.40709213 245.30338302 778.27556303 244.04711914 779.14440918 C234.29143374 785.83093461 224.14146872 791.77897691 213.81665039 797.53894043 C213.06432129 797.96175293 212.31199219 798.38456543 211.53686523 798.82019043 C171.01673949 821.43443109 124.85704493 835.45023455 78.81665039 840.53894043 C78.09094849 840.62507599 77.36524658 840.71121155 76.61755371 840.79995728 C56.57977451 843.1094386 36.45120894 842.8799378 16.31176758 842.85461426 C12.32923049 842.84999339 8.34699956 842.85687775 4.36450195 842.87512207 C-57.97316104 843.1578903 -117.34801712 834.4408707 -174.18334961 807.53894043 C-175.12082031 807.09969238 -176.05829102 806.66044434 -177.02416992 806.20788574 C-204.82891426 793.08840337 -231.07349858 776.42031862 -253.82397461 755.68347168 C-255.87962357 753.8150093 -257.95824862 751.98200307 -260.05834961 750.16394043 C-272.31773975 739.42959609 -283.87622486 728.03390428 -295.39306641 716.51452637 C-297.87531067 714.03218018 -300.36439529 711.55681635 -302.85525036 709.08311462 C-304.80725551 707.14234753 -306.75457772 705.19693078 -308.70070839 703.25027466 C-310.05173754 701.90095839 -311.40727832 700.55616413 -312.76298523 699.21154785 C-318.65623585 693.29675079 -324.00483397 687.08572742 -329.18334961 680.53894043 C-329.77002914 679.80345474 -330.35670868 679.06796906 -330.96116638 678.31019592 C-352.18165247 651.63663717 -367.84013426 622.35681194 -382.18334961 591.53894043 C-382.60487305 590.65633545 -383.02639648 589.77373047 -383.46069336 588.86437988 C-395.56454553 563.10375507 -402.55829345 534.21835311 -406.99584961 506.22644043 C-407.19090088 505.00134766 -407.38595215 503.77625488 -407.58691406 502.51403809 C-408.18102543 498.52796226 -408.69767138 494.53934036 -409.18334961 490.53894043 C-409.32318771 489.45615814 -409.32318771 489.45615814 -409.46585083 488.35150146 C-411.96944102 468.27310871 -411.52340417 447.96844149 -411.49902344 427.77282715 C-411.49440144 423.63111484 -411.50128887 419.48969682 -411.51953125 415.34802246 C-411.68813732 376.69270888 -410.58490417 337.83250265 -399.18334961 300.53894043 C-398.86849609 299.48561523 -398.55364258 298.43229004 -398.22924805 297.3470459 C-390.36736294 271.08297158 -390.36736294 271.08297158 -385.57006836 259.87487793 C-384.40174436 257.06431821 -383.37131948 254.26017049 -382.36303711 251.39050293 C-380.14912595 245.25479144 -377.45837082 239.40816302 -374.62084961 233.53894043 C-373.84064453 231.91895142 -373.84064453 231.91895142 -373.04467773 230.26623535 C-366.27602366 216.39847447 -358.70113996 202.9886975 -349.55834961 190.53894043 C-346.90213058 186.91415534 -344.28909251 183.26516179 -341.71289062 179.58312988 C-336.16337064 171.68689212 -330.1839267 164.18854577 -324.0146637 156.7691803 C-322.78040432 155.26605503 -321.56244203 153.7494172 -320.36013794 152.22061157 C-313.97379122 144.18314802 -306.92629541 136.95453639 -299.67944336 129.69909668 C-298.3885368 128.4017457 -297.09777313 127.10425251 -295.80714417 125.80662537 C-293.12038939 123.10798697 -290.42962757 120.41341937 -287.73632812 117.72131348 C-284.29778347 114.2829731 -280.8732722 110.83100753 -277.45202541 107.37546635 C-274.79849748 104.69965251 -272.13587939 102.03302751 -269.47065926 99.36886406 C-268.20404928 98.09990657 -266.94065158 96.82773372 -265.68066216 95.55220222 C-263.91810769 93.76992578 -262.14317498 92.00091514 -260.36474609 90.23449707 C-259.85595413 89.71446609 -259.34716217 89.19443512 -258.82295227 88.65864563 C-255.49789558 85.39000553 -252.1742648 83.30066754 -247.93387794 81.35909367 C-245.80580994 80.36205647 -244.04276956 79.12230243 -242.21069336 77.65612793 C-241.54682617 77.13381592 -240.88295898 76.61150391 -240.19897461 76.07336426 C-239.51319336 75.52575439 -238.82741211 74.97814453 -238.12084961 74.41394043 C-226.95886822 65.70891444 -215.36302334 58.12445305 -203.12597656 51.02233887 C-197.33976501 47.66065274 -191.53725915 44.26310746 -186.33178711 40.03503418 C-183.70481225 38.20570442 -181.11284032 37.18674505 -178.12084961 36.03894043 C-176.77253544 35.51719998 -175.42493825 34.99360466 -174.07788086 34.46862793 C-172.93053467 34.02148438 -172.93053467 34.02148438 -171.76000977 33.56530762 C-168.848509 32.40556257 -165.95947357 31.19798985 -163.07006836 29.98425293 C-147.99741712 23.67572452 -132.88633619 18.0717613 -117.18334961 13.53894043 C-115.80107178 13.13965332 -115.80107178 13.13965332 -114.39086914 12.7322998 C-108.58870402 11.09555264 -102.75486072 9.69176862 -96.873703 8.37026978 C-94.38680938 7.81004493 -91.90261009 7.23773967 -89.4210968 6.65414429 C-59.68153194 -0.25663658 -30.40361594 -0.35271243 0 0 Z " fill="#000000" transform="translate(411.183349609375,-0.5389404296875)"/>
<path d="M0 0 C5.11896837 0.05222769 10.23785983 0.0739305 15.35704041 0.09412384 C54.19668982 0.24798895 54.19668982 0.24798895 72.31347656 0.96032715 C73.22858253 0.9932058 74.14368851 1.02608444 75.08652496 1.05995941 C84.30120578 1.46406472 93.14448802 3.17013307 102.12915039 5.16394043 C103.82514705 5.52790767 105.52127576 5.89126011 107.2175293 6.25402832 C179.81120397 21.94957173 179.81120397 21.94957173 206.56665039 41.10144043 C210.18839079 43.57217847 213.90289548 45.70056592 217.75976562 47.77038574 C231.10761634 54.9430587 243.48818087 63.51856086 255.76196289 72.38269043 C258.75697925 74.59401172 258.75697925 74.59401172 262.00415039 76.22644043 C267.16686835 79.09076717 271.48541941 83.14278488 275.94555664 86.97106934 C277.35290544 88.1503483 278.7811018 89.30481678 280.21899414 90.44665527 C287.155343 95.9779681 293.49684881 101.90786476 299.7355957 108.19714355 C301.33588364 109.80830436 302.94679746 111.40829727 304.55883789 113.00769043 C305.59333504 114.04350699 306.62721281 115.07994261 307.66040039 116.11706543 C308.58014648 117.03906738 309.49989258 117.96106934 310.44750977 118.91101074 C312.65056542 121.35471345 314.16922871 123.71051826 315.81665039 126.53894043 C317.39773296 128.37461227 317.39773296 128.37461227 319.14477539 130.02722168 C319.77601318 130.64669678 320.40725098 131.26617187 321.05761719 131.90441895 C321.72059814 132.54693604 322.3835791 133.18945312 323.06665039 133.85144043 C328.21087992 138.91906283 333.16906406 144.00903086 337.81665039 149.53894043 C338.6584082 150.49155762 339.50016602 151.4441748 340.36743164 152.42565918 C357.0731691 171.39321858 370.99165785 192.09354507 383.75878906 213.85339355 C384.23034424 214.65196777 384.70189941 215.45054199 385.18774414 216.27331543 C385.59951904 216.97682129 386.01129395 217.68032715 386.43554688 218.40515137 C387.83037711 220.65074171 387.83037711 220.65074171 389.81274414 222.95300293 C391.87813559 225.6182839 393.16162914 228.09538802 394.50805664 231.17956543 C395.21285156 232.78638184 395.21285156 232.78638184 395.93188477 234.42565918 C396.40948242 235.53554199 396.88708008 236.6454248 397.37915039 237.78894043 C397.86061523 238.88335449 398.34208008 239.97776855 398.83813477 241.10534668 C401.10665034 246.3163797 403.25609695 251.50293214 404.97802734 256.9197998 C405.87758105 259.72923566 406.82650779 262.52035714 407.78094482 265.31155396 C422.08094644 307.14278967 431.15003108 348.09135183 431.11743164 392.47644043 C431.12133558 394.73490474 431.12567361 396.99336835 431.13041687 399.25183105 C431.13781932 403.95807282 431.13763273 408.66423951 431.13232422 413.3704834 C431.12769865 418.135228 431.13459648 422.89971706 431.15283203 427.66442871 C431.38905653 489.93184141 423.46732574 547.99364657 396.06347656 604.65783691 C395.01249397 606.83416292 393.96826046 609.01364504 392.92407227 611.1932373 C389.33330495 618.64536361 385.60191443 625.89908382 381.32861328 632.98791504 C379.81252967 635.54589303 378.42816185 638.14602183 377.06665039 640.78894043 C366.91459644 659.50846848 352.90896027 676.66506743 338.81665039 692.53894043 C337.99293945 693.4747998 337.16922852 694.41065918 336.32055664 695.37487793 C330.30280113 702.07796286 323.98547004 708.47078039 317.62915039 714.85144043 C316.78545898 715.69980469 315.94176758 716.54816895 315.07250977 717.42224121 C310.75538455 721.7283447 306.36325256 725.85621436 301.73974609 729.82971191 C298.33081506 732.85953624 295.18808822 736.15142565 292.00415039 739.41394043 C286.62678927 744.8663345 281.19923024 749.88975179 275.16821289 754.61315918 C272.97601882 756.40842775 271.11219522 758.27437543 269.19165039 760.35144043 C262.94584051 766.77606696 255.19115266 771.52122072 247.81665039 776.53894043 C246.5599065 777.40709213 245.30338302 778.27556303 244.04711914 779.14440918 C234.29143374 785.83093461 224.14146872 791.77897691 213.81665039 797.53894043 C213.06432129 797.96175293 212.31199219 798.38456543 211.53686523 798.82019043 C171.01673949 821.43443109 124.85704493 835.45023455 78.81665039 840.53894043 C78.09094849 840.62507599 77.36524658 840.71121155 76.61755371 840.79995728 C56.57977451 843.1094386 36.45120894 842.8799378 16.31176758 842.85461426 C12.32923049 842.84999339 8.34699956 842.85687775 4.36450195 842.87512207 C-57.97316104 843.1578903 -117.34801712 834.4408707 -174.18334961 807.53894043 C-175.12082031 807.09969238 -176.05829102 806.66044434 -177.02416992 806.20788574 C-204.82891426 793.08840337 -231.07349858 776.42031862 -253.82397461 755.68347168 C-255.87962357 753.8150093 -257.95824862 751.98200307 -260.05834961 750.16394043 C-272.31773975 739.42959609 -283.87622486 728.03390428 -295.39306641 716.51452637 C-297.87531067 714.03218018 -300.36439529 711.55681635 -302.85525036 709.08311462 C-304.80725551 707.14234753 -306.75457772 705.19693078 -308.70070839 703.25027466 C-310.05173754 701.90095839 -311.40727832 700.55616413 -312.76298523 699.21154785 C-318.65623585 693.29675079 -324.00483397 687.08572742 -329.18334961 680.53894043 C-329.77002914 679.80345474 -330.35670868 679.06796906 -330.96116638 678.31019592 C-352.18165247 651.63663717 -367.84013426 622.35681194 -382.18334961 591.53894043 C-382.60487305 590.65633545 -383.02639648 589.77373047 -383.46069336 588.86437988 C-395.56454553 563.10375507 -402.55829345 534.21835311 -406.99584961 506.22644043 C-407.19090088 505.00134766 -407.38595215 503.77625488 -407.58691406 502.51403809 C-408.18102543 498.52796226 -408.69767138 494.53934036 -409.18334961 490.53894043 C-409.32318771 489.45615814 -409.32318771 489.45615814 -409.46585083 488.35150146 C-411.96944102 468.27310871 -411.52340417 447.96844149 -411.49902344 427.77282715 C-411.49440144 423.63111484 -411.50128887 419.48969682 -411.51953125 415.34802246 C-411.68813732 376.69270888 -410.58490417 337.83250265 -399.18334961 300.53894043 C-398.86849609 299.48561523 -398.55364258 298.43229004 -398.22924805 297.3470459 C-390.36736294 271.08297158 -390.36736294 271.08297158 -385.57006836 259.87487793 C-384.40174436 257.06431821 -383.37131948 254.26017049 -382.36303711 251.39050293 C-380.14912595 245.25479144 -377.45837082 239.40816302 -374.62084961 233.53894043 C-373.84064453 231.91895142 -373.84064453 231.91895142 -373.04467773 230.26623535 C-366.27602366 216.39847447 -358.70113996 202.9886975 -349.55834961 190.53894043 C-346.90213058 186.91415534 -344.28909251 183.26516179 -341.71289062 179.58312988 C-336.16337064 171.68689212 -330.1839267 164.18854577 -324.0146637 156.7691803 C-322.78040432 155.26605503 -321.56244203 153.7494172 -320.36013794 152.22061157 C-313.97379122 144.18314802 -306.92629541 136.95453639 -299.67944336 129.69909668 C-298.3885368 128.4017457 -297.09777313 127.10425251 -295.80714417 125.80662537 C-293.12038939 123.10798697 -290.42962757 120.41341937 -287.73632812 117.72131348 C-284.29778347 114.2829731 -280.8732722 110.83100753 -277.45202541 107.37546635 C-274.79849748 104.69965251 -272.13587939 102.03302751 -269.47065926 99.36886406 C-268.20404928 98.09990657 -266.94065158 96.82773372 -265.68066216 95.55220222 C-263.91810769 93.76992578 -262.14317498 92.00091514 -260.36474609 90.23449707 C-259.85595413 89.71446609 -259.34716217 89.19443512 -258.82295227 88.65864563 C-255.49789558 85.39000553 -252.1742648 83.30066754 -247.93387794 81.35909367 C-245.80580994 80.36205647 -244.04276956 79.12230243 -242.21069336 77.65612793 C-241.54682617 77.13381592 -240.88295898 76.61150391 -240.19897461 76.07336426 C-239.51319336 75.52575439 -238.82741211 74.97814453 -238.12084961 74.41394043 C-226.95886822 65.70891444 -215.36302334 58.12445305 -203.12597656 51.02233887 C-197.33976501 47.66065274 -191.53725915 44.26310746 -186.33178711 40.03503418 C-183.70481225 38.20570442 -181.11284032 37.18674505 -178.12084961 36.03894043 C-176.77253544 35.51719998 -175.42493825 34.99360466 -174.07788086 34.46862793 C-172.93053467 34.02148438 -172.93053467 34.02148438 -171.76000977 33.56530762 C-168.848509 32.40556257 -165.95947357 31.19798985 -163.07006836 29.98425293 C-147.99741712 23.67572452 -132.88633619 18.0717613 -117.18334961 13.53894043 C-115.80107178 13.13965332 -115.80107178 13.13965332 -114.39086914 12.7322998 C-108.58870402 11.09555264 -102.75486072 9.69176862 -96.873703 8.37026978 C-94.38680938 7.81004493 -91.90261009 7.23773967 -89.4210968 6.65414429 C-59.68153194 -0.25663658 -30.40361594 -0.35271243 0 0 Z M-33.18334961 52.53894043 C-33.82965332 52.62659668 -34.47595703 52.71425293 -35.1418457 52.80456543 C-76.11284543 58.41261903 -114.95015889 69.21099801 -152.18334961 87.53894043 C-153.21057129 88.04296387 -154.23779297 88.5469873 -155.29614258 89.06628418 C-176.6004208 99.61158961 -196.4857103 111.85675096 -215.18334961 126.53894043 C-216.07795898 127.23245605 -216.97256836 127.92597168 -217.89428711 128.64050293 C-257.64098049 159.89761132 -290.9149783 197.90935428 -315.05200195 242.45690918 C-315.81665555 243.86410941 -316.58800534 245.26768845 -317.36547852 246.66784668 C-335.06689087 278.54892443 -346.44580628 313.01317286 -354.18334961 348.53894043 C-354.35946777 349.32865234 -354.53558594 350.11836426 -354.71704102 350.93200684 C-359.78819524 373.95646322 -360.76226799 397.42118349 -360.68334961 420.91394043 C-360.68207914 422.27990709 -360.68097199 423.6458739 -360.68002319 425.01184082 C-360.64455718 446.52474315 -359.41849372 467.4169805 -355.18334961 488.53894043 C-354.98580078 489.57534668 -354.78825195 490.61175293 -354.5847168 491.67956543 C-353.35476994 498.03535301 -351.8552924 504.28613735 -350.18334961 510.53894043 C-349.90652344 511.59387695 -349.62969727 512.64881348 -349.34448242 513.73571777 C-337.6386897 557.9076848 -319.03520486 599.45333615 -292.18334961 636.53894043 C-291.78664063 637.08727539 -291.38993164 637.63561035 -290.98120117 638.20056152 C-285.64419782 645.53055313 -279.99396453 652.58136889 -274.18334961 659.53894043 C-273.3828418 660.5263623 -272.58233398 661.51378418 -271.75756836 662.53112793 C-265.1533475 670.56511588 -257.9510282 677.98558542 -250.62084961 685.35144043 C-250.13815613 685.8393103 -249.65546265 686.32718018 -249.15814209 686.82983398 C-243.24997089 692.78790232 -237.15498793 698.36346394 -230.59716797 703.60656738 C-228.67782853 705.14308722 -226.80862794 706.70293347 -224.96850586 708.33190918 C-173.02625838 754.01425883 -104.79996864 779.63323729 -37.18334961 789.53894043 C-35.96421875 789.72802979 -34.74508789 789.91711914 -33.48901367 790.11193848 C-19.52489609 792.04523153 -5.50897879 791.97785915 8.56665039 791.97644043 C9.55751522 791.97758661 9.55751522 791.97758661 10.56839752 791.97875595 C32.99896906 792.000191 54.76998234 790.809996 76.81665039 786.53894043 C77.88753906 786.33607422 78.95842773 786.13320801 80.06176758 785.92419434 C86.380138 784.69201946 92.5973684 783.19480555 98.81665039 781.53894043 C99.7836084 781.28918457 100.75056641 781.03942871 101.74682617 780.78210449 C157.83609952 766.22295078 208.90039013 739.60332093 252.75415039 701.78894043 C253.35670654 701.27033447 253.9592627 700.75172852 254.58007812 700.21740723 C258.2633436 697.00621149 261.75593797 693.66043632 265.16748047 690.16174316 C266.89641326 688.46045282 268.70355704 686.90368043 270.56665039 685.35144043 C275.63592383 680.97833414 280.03269829 675.99567113 284.48803711 671.01599121 C285.69127402 669.67832431 286.91123893 668.35575114 288.13305664 667.03503418 C334.45435702 616.73623395 363.43077946 551.22320995 375.81665039 484.53894043 C376.08638672 483.17164795 376.08638672 483.17164795 376.36157227 481.7767334 C377.82462629 474.20139567 378.72092883 466.5925786 379.44165039 458.91394043 C379.50701996 458.21917603 379.57238953 457.52441162 379.63973999 456.80859375 C381.98467156 431.03575975 382.49547271 404.19590491 378.81665039 378.53894043 C378.66599121 377.4039209 378.51533203 376.26890137 378.36010742 375.0994873 C371.77903013 325.96583433 356.66783248 279.61270006 331.81665039 236.53894043 C331.32696777 235.68219727 330.83728516 234.8254541 330.33276367 233.94274902 C320.17913317 216.25675169 308.42402914 200.02280308 295.35473633 184.38562012 C293.92473706 182.66871306 292.51373091 180.93793769 291.10571289 179.20300293 C284.74544602 171.47012419 277.8092765 164.32240942 270.75415039 157.22644043 C269.84415283 156.30717773 268.93415527 155.38791504 267.99658203 154.4407959 C261.90899716 148.38112819 255.52813903 142.8920308 248.81665039 137.53894043 C247.75463526 136.65133248 246.69628352 135.7592833 245.64477539 134.85925293 C237.98840941 128.33974129 230.02896351 122.33723512 221.81665039 116.53894043 C221.2254541 116.12144531 220.63425781 115.7039502 220.02514648 115.27380371 C204.79431939 104.61687474 188.48803773 95.49658916 171.73510742 87.46569824 C169.81362204 86.53747751 167.90683206 85.58326972 166.00024414 84.62487793 C145.26015326 74.34994694 123.19497762 67.25548766 100.81665039 61.53894043 C99.41261963 61.1776001 99.41261963 61.1776001 97.98022461 60.80895996 C91.94944233 59.27220359 85.90158513 57.84501203 79.81665039 56.53894043 C79.12249023 56.38973145 78.42833008 56.24052246 77.71313477 56.08679199 C42.24231884 48.747407 2.66846039 47.65005725 -33.18334961 52.53894043 Z " fill="#000000" transform="translate(411.183349609375,-0.5389404296875)"/>
<path d="M0 0 C0.68819824 0.32822754 1.37639648 0.65645508 2.08544922 0.99462891 C19.07665357 9.15289048 35.55552625 18.1815118 51 29 C52.15746737 29.79699804 53.31501922 30.59387341 54.47265625 31.390625 C63.01103815 37.3246681 71.10006558 43.76273134 79.08886719 50.41357422 C80.8337092 51.86196249 82.5908818 53.29361421 84.3515625 54.72265625 C92.07816082 61.08010088 99.22123012 68.01204596 106.3125 75.0625 C107.2317627 75.97249756 108.15102539 76.88249512 109.09814453 77.82006836 C114.41413562 83.16055047 119.33209932 88.67327032 124.04125977 94.55541992 C125.61227095 96.51609984 127.20739973 98.43184449 128.86328125 100.3203125 C136.2405316 108.76826426 142.72041952 117.71344261 149 127 C149.47469727 127.7017334 149.94939453 128.4034668 150.43847656 129.12646484 C157.13362849 139.09516202 163.17248498 149.34088045 168.86523438 159.91113281 C169.8942473 161.8053313 170.9482179 163.68195039 172.015625 165.5546875 C191.80845458 201.03695516 203.10890582 241.28072031 209.3125 281.1875 C209.44210114 282.01920715 209.57170227 282.85091431 209.70523071 283.70782471 C212.25468913 300.25688328 213.23850132 316.57801601 213.25 333.3125 C213.25101212 334.64935349 213.25101212 334.64935349 213.25204468 336.01321411 C213.22198537 361.26274941 211.15352138 385.95923732 205.72875977 410.67724609 C205.18377962 413.16206344 204.65789444 415.64787921 204.14428711 418.13916016 C201.90175161 428.84263706 198.955424 439.14989431 195.4375 449.5 C195.1764447 450.27447479 194.9153894 451.04894958 194.64642334 451.84689331 C183.69690966 484.23461575 169.13486806 514.62507914 150 543 C149.23091309 544.14734619 149.23091309 544.14734619 148.44628906 545.31787109 C137.90203475 560.94902494 125.86823938 575.2455691 113 589 C111.97608389 590.12468351 110.95400886 591.25104536 109.93359375 592.37890625 C105.20134444 597.59636274 100.51737003 602.68662092 95.1015625 607.2109375 C92.9688148 609.02654799 90.92577715 610.92311067 88.88354492 612.83935547 C81.92436758 619.34690146 74.58858886 625.24603757 67 631 C66.41379883 631.44843262 65.82759766 631.89686523 65.22363281 632.35888672 C50.59478407 643.51328347 35.00968117 653.18935076 18.86035156 661.97949219 C17.09192467 662.94957413 15.33843883 663.94674767 13.5859375 664.9453125 C-17.9168182 682.51005439 -54.29774133 694.14487921 -89.6875 700.625 C-91.2794519 700.91673096 -91.2794519 700.91673096 -92.90356445 701.21435547 C-96.59558683 701.85818247 -100.29456103 702.44018882 -104 703 C-104.82363037 703.12815094 -105.64726074 703.25630188 -106.49584961 703.38833618 C-123.56108642 705.98730563 -140.38167625 706.5205478 -157.625 706.4375 C-158.95928897 706.43449288 -160.29357858 706.43175895 -161.62786865 706.42929077 C-180.77326205 706.37995094 -199.170792 705.63708981 -218 702 C-220.22202001 701.61866973 -222.44469254 701.24112415 -224.66796875 700.8671875 C-286.78177551 690.07584465 -345.87519837 661.96958739 -394.14160156 621.54980469 C-395.85071389 620.12449662 -397.57482067 618.72028318 -399.3046875 617.3203125 C-407.23879724 610.80957012 -414.54122376 603.66888713 -421.8125 596.4375 C-422.30082306 595.95444397 -422.78914612 595.47138794 -423.29226685 594.97369385 C-429.24983703 589.0658965 -434.82491537 582.97114819 -440.06762695 576.41381836 C-441.60414679 574.49447892 -443.16399304 572.62527833 -444.79296875 570.78515625 C-487.88692248 521.78599515 -514.94973694 456.22692762 -524.67590332 392.10952759 C-524.90526026 390.61665582 -525.14280864 389.12503182 -525.3861084 387.6343689 C-527.93976617 371.809148 -528.47353433 356.21755183 -528.39111328 340.20385742 C-528.37746986 337.53145294 -528.37739985 334.85965994 -528.39111328 332.18725586 C-528.50599487 308.14018216 -526.87601239 284.67592615 -521.44140625 261.19921875 C-521.20953613 260.19681152 -520.97766602 259.1944043 -520.73876953 258.16162109 C-520.37307861 256.59661865 -520.37307861 256.59661865 -520 255 C-519.74202637 253.87803223 -519.48405273 252.75606445 -519.21826172 251.60009766 C-513.69091854 227.7673582 -506.09667952 205.2739378 -496 183 C-495.61086426 182.13665039 -495.22172852 181.27330078 -494.82080078 180.38378906 C-482.69635802 153.67127241 -467.38977854 128.86811839 -449 106 C-448.24332031 105.05125 -447.48664063 104.1025 -446.70703125 103.125 C-442.3325778 97.70399056 -437.7958068 92.46623667 -433.1015625 87.3203125 C-431.27717206 85.30602269 -429.50906198 83.25851386 -427.75 81.1875 C-420.07351147 72.40929321 -411.73535689 64.3347617 -402.59375 57.09765625 C-400.06414873 55.05187932 -397.69223411 52.90461894 -395.3125 50.6875 C-372.64821075 30.12902661 -345.20437737 14.63768037 -318 1 C-316.61458008 0.29955566 -316.61458008 0.29955566 -315.20117188 -0.41503906 C-238.94112913 -38.54506043 -145.36025873 -45.14091575 0 0 Z M-218 28 C-220.0465518 28.36768889 -222.0934287 28.73357286 -224.140625 29.09765625 C-270.20720824 37.6475431 -314.29496821 57.95726249 -351 87 C-351.98097656 87.76828125 -352.96195312 88.5365625 -353.97265625 89.328125 C-370.35479724 102.4338378 -386.19926157 117.36774803 -399 134 C-400.0150962 135.28687563 -401.03076379 136.57330067 -402.046875 137.859375 C-445.65309102 193.47882197 -468.19192305 262.78717468 -468.18530273 333.26708984 C-468.18749109 335.86442428 -468.2057318 338.46133375 -468.22460938 341.05859375 C-468.25948994 351.55664856 -467.53208217 361.61371432 -466 372 C-465.70389696 374.41612711 -465.41166506 376.83273494 -465.125 379.25 C-456.94218961 439.09070499 -431.13511122 499.22218982 -389.4453125 543.40625 C-387.41592087 545.55883154 -385.47543338 547.74514133 -383.5625 550 C-376.31634411 558.31837943 -368.44656493 565.90843734 -359.796875 572.75 C-357.91380006 574.26487593 -356.06967121 575.82932166 -354.265625 577.4375 C-339.24423574 590.78984601 -321.79333179 601.71570541 -304 611 C-303.06728271 611.49306641 -303.06728271 611.49306641 -302.11572266 611.99609375 C-265.25618757 631.38294566 -226.27854256 642.2638033 -185 647 C-184.13197754 647.1038501 -183.26395508 647.2077002 -182.36962891 647.31469727 C-156.11845887 650.11203564 -128.9182743 648.61175432 -103 644 C-101.8744873 643.80164551 -100.74897461 643.60329102 -99.58935547 643.39892578 C-74.1299769 638.72498992 -48.17708878 630.62124486 -25 619 C-24.11199707 618.56075195 -23.22399414 618.12150391 -22.30908203 617.66894531 C-9.33394503 611.21306613 3.06595772 604.2231469 15 596 C15.90105469 595.38608398 15.90105469 595.38608398 16.8203125 594.75976562 C41.32295656 578.00190003 64.7263517 557.43865086 83 534 C83.90186092 532.90760034 84.80701284 531.81791216 85.71484375 530.73046875 C121.57720382 487.46955307 144.58216692 433.59989876 152 378 C152.11714355 377.15743652 152.23428711 376.31487305 152.35498047 375.44677734 C155.83219667 349.34957221 155.62507405 321.06365918 152 295 C151.86432617 294.02313232 151.72865234 293.04626465 151.58886719 292.03979492 C147.11983367 261.49908605 138.69432094 231.12120391 125.13867188 203.33447266 C123.96275743 200.92364634 122.8172037 198.49970478 121.671875 196.07421875 C109.58766699 170.84461819 93.73194218 147.75113017 75 127 C74.18063965 126.08806885 74.18063965 126.08806885 73.34472656 125.15771484 C61.48195323 112.0193381 48.9028876 100.00434904 34.76660156 89.33398438 C33.59549046 88.44966278 32.42810795 87.56038011 31.26464844 86.66601562 C-8.12163593 56.40285826 -54.38892765 37.39719858 -103 28 C-104.08023437 27.78827148 -105.16046875 27.57654297 -106.2734375 27.35839844 C-142.15506495 20.69919052 -182.2387609 20.87468435 -218 28 Z " fill="#FEFEFE" transform="translate(579,85)"/>
<path d="M0 0 C-0.18175781 0.66136963 -0.36351562 1.32273926 -0.55078125 2.00415039 C-7.11273692 25.96159817 -12.22804951 48.35747831 -12.375 73.25 C-12.3830365 74.00945923 -12.391073 74.76891846 -12.39935303 75.5513916 C-12.7541228 119.74591044 9.15650659 160.5227387 39 192 C40.06793683 193.26626796 41.13072705 194.53690032 42.1875 195.8125 C78.39312446 237.16624356 137.10878433 267.97362485 192 272 C217.51712811 273.35813495 242.66651994 270.97739005 267 263 C267.78358887 262.74879395 268.56717773 262.49758789 269.37451172 262.23876953 C302.47365021 251.53350252 332.51932654 234.45266701 359.62890625 212.73046875 C362 211 362 211 364 211 C369.33502024 236.72917564 374.35238111 265.23701943 367 291 C366.6596875 292.21300781 366.319375 293.42601562 365.96875 294.67578125 C360.38732018 312.83428434 351.12577121 329.25932779 338 343 C337.45988281 343.61488281 336.91976562 344.22976563 336.36328125 344.86328125 C317.92796568 365.06318622 287.10486718 371.07410921 261 373 C208.67491972 375.2375201 162.42198029 356.55286354 122 324 C120.6246106 322.89833496 120.6246106 322.89833496 119.22143555 321.77441406 C106.8166386 311.47699962 95.6225754 299.88637154 84.26861572 288.4642334 C81.98523601 286.16998939 79.69624036 283.88139117 77.4071207 281.59287643 C75.17874668 279.36422897 72.95299892 277.13297402 70.72810173 274.90085602 C69.67665708 273.84626496 68.62463721 272.79224704 67.57199287 271.73885345 C62.34906503 266.50811904 57.22728039 261.2387603 52.41300964 255.62518311 C50.72471505 253.68337905 48.93732849 251.89379924 47.0546875 250.140625 C46.37728516 249.50616455 45.69988281 248.8717041 45.00195312 248.21801758 C44.30005859 247.56857178 43.59816406 246.91912598 42.875 246.25 C42.12927734 245.55608154 41.38355469 244.86216309 40.61523438 244.1472168 C39.11036659 242.74760594 37.60420624 241.34938341 36.09667969 239.95263672 C34.25089606 238.23365937 32.42217686 236.49943808 30.6015625 234.75390625 C-13.3873057 192.82187416 -69.51222485 172.28021758 -129.89994812 173.65975952 C-144.45410285 174.14962975 -159.47598198 176.43723114 -173.546875 180.15625 C-176.69605541 180.925733 -179.27777258 181.21450632 -182.5 181.125 C-183.3559375 181.10695313 -184.211875 181.08890625 -185.09375 181.0703125 C-185.7228125 181.04710937 -186.351875 181.02390625 -187 181 C-175.67966894 130.6481108 -142.30659027 80.80399847 -102 49 C-101.02417969 48.20722656 -100.04835938 47.41445312 -99.04296875 46.59765625 C-74.5846053 27.1232612 -32.07081696 -0.61348741 0 0 Z " fill="#FEFEFE" transform="translate(342,150)"/>
<path d="M0 0 C0 0.99 0 1.98 0 3 C-0.969375 3.52207031 -1.93875 4.04414063 -2.9375 4.58203125 C-17.88351766 12.74313297 -31.751996 22.31090141 -45 33 C-45.53238281 33.42796875 -46.06476563 33.8559375 -46.61328125 34.296875 C-55.5380888 41.53896228 -63.63898578 49.48267194 -71.60400391 57.76538086 C-72.37663574 58.55823486 -73.14926758 59.35108887 -73.9453125 60.16796875 C-74.63125488 60.88235107 -75.31719727 61.5967334 -76.02392578 62.33276367 C-78.07276844 64.06139556 -79.37917874 64.60911151 -82 65 C-71.85835519 52.86823651 -60.52814888 41.6522467 -48 32 C-46.91355733 31.12593956 -45.82902749 30.24949789 -44.74609375 29.37109375 C-30.9278641 18.22313833 -15.90744117 7.95372059 0 0 Z " fill="#212121" transform="translate(271,144)"/>
<path d="M0 0 C3.80970014 3.65210463 7.05228403 7.49639711 10.25 11.6875 C14.29434148 16.91338065 18.48683964 21.91625789 22.96484375 26.78125 C24.7954442 28.77699099 26.55836483 30.81230611 28.3125 32.875 C33.23183077 38.54039041 38.65844963 43.7373888 44 49 C43.34 49.66 42.68 50.32 42 51 C39.14153993 48.17097124 36.28905016 45.33599221 33.4375 42.5 C32.63763672 41.70851563 31.83777344 40.91703125 31.01367188 40.1015625 C23.65743546 32.77535154 16.93697961 25.03764009 10.375 17 C9.8284375 16.34 9.281875 15.68 8.71875 15 C5.08216299 10.54561592 1.92939052 5.9475613 -1 1 C-0.67 0.67 -0.34 0.34 0 0 Z " fill="#1A1A1A" transform="translate(169,600)"/>
<path d="M0 0 C3.07000058 0.63161664 5.39998512 1.66073829 8.08984375 3.2578125 C8.8686792 3.71567139 9.64751465 4.17353027 10.44995117 4.64526367 C11.27084229 5.13357666 12.0917334 5.62188965 12.9375 6.125 C20.53999015 10.59238259 28.19596943 14.89482772 36 19 C35.34 19.66 34.68 20.32 34 21 C7.94077676 7.11473316 7.94077676 7.11473316 0 1 C0 0.67 0 0.34 0 0 Z " fill="#272727" transform="translate(250,680)"/>
<path d="M0 0 C0.99 0.33 1.98 0.66 3 1 C0.09564158 3.99138207 -2.82545686 6.96585915 -5.75 9.9375 C-6.575 10.78763672 -7.4 11.63777344 -8.25 12.51367188 C-9.44882813 13.72700195 -9.44882813 13.72700195 -10.671875 14.96484375 C-11.77160645 16.08814087 -11.77160645 16.08814087 -12.89355469 17.23413086 C-15.01408941 19.0118114 -16.29633102 19.6126166 -19 20 C-13.17371096 12.84198775 -6.5617015 6.47408234 0 0 Z " fill="#191919" transform="translate(208,189)"/>
<path d="M0 0 C3.2586636 1.4264578 5.4024854 3.16704162 7.890625 5.6953125 C8.95410156 6.76845703 8.95410156 6.76845703 10.0390625 7.86328125 C11.13347656 8.98283203 11.13347656 8.98283203 12.25 10.125 C12.99507812 10.87910156 13.74015625 11.63320313 14.5078125 12.41015625 C16.3431342 14.26900772 18.1736191 16.13237005 20 18 C19.34 18.66 18.68 19.32 18 20 C14.99196428 17.04974274 11.9949821 14.08850331 9 11.125 C8.14148438 10.28324219 7.28296875 9.44148437 6.3984375 8.57421875 C5.58632812 7.76855469 4.77421875 6.96289062 3.9375 6.1328125 C2.80634766 5.01737061 2.80634766 5.01737061 1.65234375 3.87939453 C0 2 0 2 0 0 Z " fill="#222222" transform="translate(193,631)"/>
<path d="M0 0 C4.45927954 0.88387022 7.35449794 3.37908009 10.8125 6.1875 C11.43398926 6.68419189 12.05547852 7.18088379 12.69580078 7.69262695 C16.87171855 11.04375991 20.98206841 14.4603936 25 18 C24.34 18.66 23.68 19.32 23 20 C22.34515625 19.38253906 21.6903125 18.76507813 21.015625 18.12890625 C15.01527799 12.56078763 8.87244488 7.51133562 2.23828125 2.71484375 C1.49964844 2.14894531 0.76101563 1.58304687 0 1 C0 0.67 0 0.34 0 0 Z " fill="#2F2F2F" transform="translate(645,125)"/>
<path d="M0 0 C0.99 0.33 1.98 0.66 3 1 C2.38511719 1.67546875 1.77023438 2.3509375 1.13671875 3.046875 C0.32847656 3.93890625 -0.47976562 4.8309375 -1.3125 5.75 C-2.11300781 6.63171875 -2.91351563 7.5134375 -3.73828125 8.421875 C-5.60916911 10.55449328 -7.34084286 12.70187943 -9 15 C-9.99 14.67 -10.98 14.34 -12 14 C-8.04 9.38 -4.08 4.76 0 0 Z " fill="#191919" transform="translate(187,211)"/>
<path d="M0 0 C3.67033927 3.27708863 5.69281189 6.71522208 8 11 C7.01 11 6.02 11 5 11 C3.39453125 8.8125 3.39453125 8.8125 1.8125 6 C1.28269531 5.071875 0.75289062 4.14375 0.20703125 3.1875 C-0.19128906 2.465625 -0.58960938 1.74375 -1 1 C-0.67 0.67 -0.34 0.34 0 0 Z " fill="#161616" transform="translate(161,588)"/>
<path d="M0 0 C2.96865509 2.54456151 4.3619751 5.48994665 6 9 C5.01 9 4.02 9 3 9 C1.68 6.36 0.36 3.72 -1 1 C-0.67 0.67 -0.34 0.34 0 0 Z " fill="#181818" transform="translate(155,578)"/>
<path d="M0 0 C3.81684226 1.55500981 6.19195732 4.03595495 9 7 C4.68381834 7 3.07210341 4.86729652 0 2 C0 1.34 0 0.68 0 0 Z " fill="#212121" transform="translate(228,663)"/>
<path d="M0 0 C0.66 0.66 1.32 1.32 2 2 C-0.64 4.31 -3.28 6.62 -6 9 C-6 6 -6 6 -4.6875 4.39453125 C-4.130625 3.87246094 -3.57375 3.35039062 -3 2.8125 C-2.443125 2.28269531 -1.88625 1.75289062 -1.3125 1.20703125 C-0.6628125 0.60955078 -0.6628125 0.60955078 0 0 Z " fill="#2F2F2F" transform="translate(179,137)"/>
<path d="M0 0 C3.91402949 1.26941497 5.79072873 2.51167694 8 6 C5 6 5 6 3.61328125 4.6875 C2.40885417 3.125 1.20442708 1.5625 0 0 Z " fill="#181818" transform="translate(662,138)"/>
</svg>
